<svg width="124" height="630" viewBox="0 0 124 630" fill="none" xmlns="http://www.w3.org/2000/svg">
<g filter="url(#filter0_f_7_4841)">
<path fill-rule="evenodd" clip-rule="evenodd" d="M20 67.5L27.5 27.5L36.5 50L45.5 20L60 47.5L71 33.5L85 56.5L98 35L104 67.5V68V96V610H20V96V68V67.5Z" fill="#43E0F7"/>
</g>
<mask id="path-2-inside-1_7_4841" fill="white">
<path fill-rule="evenodd" clip-rule="evenodd" d="M20 67.5L27.5 27.5L36.5 50L45.5 20L60 47.5L71 33.5L85 56.5L98 35L104 67.5V68V96V610H20V96V68V67.5Z"/>
</mask>
<path fill-rule="evenodd" clip-rule="evenodd" d="M20 67.5L27.5 27.5L36.5 50L45.5 20L60 47.5L71 33.5L85 56.5L98 35L104 67.5V68V96V610H20V96V68V67.5Z" fill="#43E0F7"/>
<path d="M27.5 27.5L32.1424 25.643L25.7551 9.67482L22.5856 26.5786L27.5 27.5ZM20 67.5L15.0856 66.5786L15 67.0353V67.5H20ZM36.5 50L31.8576 51.857L37.175 65.1505L41.2891 51.4367L36.5 50ZM45.5 20L49.9228 17.668L44.2227 6.85727L40.7109 18.5633L45.5 20ZM60 47.5L55.5772 49.832L59.171 56.648L63.9316 50.5891L60 47.5ZM71 33.5L75.271 30.9003L71.5225 24.742L67.0684 30.4109L71 33.5ZM85 56.5L80.729 59.0997L85.0143 66.1398L89.2787 59.0871L85 56.5ZM98 35L102.917 34.0923L100.528 21.1549L93.7213 32.4129L98 35ZM104 67.5H109V67.0423L108.917 66.5923L104 67.5ZM104 610V615H109V610H104ZM20 610H15V615H20V610ZM22.5856 26.5786L15.0856 66.5786L24.9144 68.4214L32.4144 28.4214L22.5856 26.5786ZM41.1424 48.143L32.1424 25.643L22.8576 29.357L31.8576 51.857L41.1424 48.143ZM40.7109 18.5633L31.7109 48.5633L41.2891 51.4367L50.2891 21.4367L40.7109 18.5633ZM64.4228 45.168L49.9228 17.668L41.0772 22.332L55.5772 49.832L64.4228 45.168ZM67.0684 30.4109L56.0684 44.4109L63.9316 50.5891L74.9316 36.5891L67.0684 30.4109ZM89.271 53.9003L75.271 30.9003L66.729 36.0997L80.729 59.0997L89.271 53.9003ZM93.7213 32.4129L80.7213 53.9129L89.2787 59.0871L102.279 37.5871L93.7213 32.4129ZM108.917 66.5923L102.917 34.0923L93.0831 35.9077L99.0831 68.4077L108.917 66.5923ZM109 68V67.5H99V68H109ZM99 68V96H109V68H99ZM99 96V610H109V96H99ZM104 605H20V615H104V605ZM25 610V96H15V610H25ZM25 96V68H15V96H25ZM15 67.5V68H25V67.5H15Z" fill="#D9EAF0" mask="url(#path-2-inside-1_7_4841)"/>
<defs>
<filter id="filter0_f_7_4841" x="0" y="0" width="124" height="630" filterUnits="userSpaceOnUse" color-interpolation-filters="sRGB">
<feFlood flood-opacity="0" result="BackgroundImageFix"/>
<feBlend mode="normal" in="SourceGraphic" in2="BackgroundImageFix" result="shape"/>
<feGaussianBlur stdDeviation="10" result="effect1_foregroundBlur_7_4841"/>
</filter>
</defs>
</svg>
